<svg width="3190" height="1100" viewBox="0 0 3190 1100" fill="none" xmlns="http://www.w3.org/2000/svg">
<path d="M653.497 1082.19H0V8.90686H653.497V142.51H145.222V478.003H603.114V607.152H145.222V947.099H653.497V1082.19Z" fill="black"/>
<path d="M878.75 184.076C828.367 184.076 786.875 142.51 786.875 92.0377C786.875 40.081 828.367 0 878.75 0C929.133 0 970.625 40.081 970.625 92.0377C970.625 142.51 929.133 184.076 878.75 184.076ZM810.585 1082.19V356.275H949.879V1082.19H810.585Z" fill="black"/>
<path d="M1063.19 871.39H1196.56C1196.56 945.614 1252.87 990.148 1344.75 990.148C1442.55 990.148 1498.86 950.068 1498.86 883.266C1498.86 834.278 1475.15 804.588 1399.57 785.29L1272.14 755.601C1143.21 724.426 1082.46 660.594 1082.46 553.711C1082.46 420.108 1195.08 335.493 1355.12 335.493C1513.68 335.493 1617.41 424.561 1620.37 562.618H1487C1484.04 489.879 1435.14 443.86 1350.67 443.86C1263.24 443.86 1214.34 482.456 1214.34 549.258C1214.34 598.246 1249.91 630.904 1321.04 648.718L1448.48 679.892C1571.47 709.582 1632.23 765.992 1632.23 874.359C1632.23 1012.42 1513.68 1100 1341.78 1100C1171.37 1100 1063.19 1009.45 1063.19 871.39Z" fill="black"/>
<path d="M2069.73 1100C1856.34 1100 1709.64 945.614 1709.64 719.973C1709.64 492.847 1853.38 335.493 2063.8 335.493C2269.78 335.493 2404.63 478.003 2404.63 693.252V745.209L1844.49 746.694C1854.86 899.595 1934.88 984.211 2072.69 984.211C2180.87 984.211 2252 939.676 2275.71 856.545H2406.11C2370.55 1012.42 2249.04 1100 2069.73 1100ZM2063.8 452.767C1942.29 452.767 1865.24 525.506 1847.45 653.171H2265.34C2265.34 532.929 2186.8 452.767 2063.8 452.767Z" fill="black"/>
<path d="M2669.87 1082.19H2530.58V356.275H2656.53L2671.35 467.611C2717.29 384.48 2809.16 335.493 2911.41 335.493C3102.57 335.493 3190 452.767 3190 638.327V1082.19H3050.71V669.501C3050.71 522.537 2982.54 463.158 2875.85 463.158C2745.44 463.158 2669.87 556.68 2669.87 697.706V1082.19Z" fill="black"/>
</svg>
