<svg width="100" height="13" viewBox="0 0 100 13" fill="none" xmlns="http://www.w3.org/2000/svg">
<path d="M0 12.7197V0.280323H8.78699V2.52291H2.70369V5.37871H8.57354V7.58625H2.70369V10.4771H8.92929V12.7197H0Z" fill="white"/>
<path d="M11.3687 12.7197V0.280323H14.0724V12.7197H11.3687Z" fill="white"/>
<path d="M21.7775 13C20.6866 13 19.7498 12.819 18.9671 12.4569C18.1845 12.0948 17.5738 11.5867 17.135 10.9326C16.6962 10.2785 16.4472 9.50764 16.3879 8.61995L19.1094 8.4973C19.1806 8.98787 19.3229 9.40836 19.5363 9.75876C19.7616 10.0975 20.0581 10.3544 20.4257 10.5296C20.8051 10.7049 21.2676 10.7925 21.8131 10.7925C22.2637 10.7925 22.6432 10.7399 22.9515 10.6348C23.2717 10.5296 23.5148 10.372 23.6808 10.1617C23.8468 9.9398 23.9298 9.67116 23.9298 9.35579C23.9298 9.06379 23.8586 8.81267 23.7163 8.60243C23.574 8.3805 23.3013 8.18194 22.8981 8.00674C22.4949 7.81986 21.902 7.63881 21.1194 7.46361C20.0403 7.21833 19.1687 6.94385 18.5046 6.64016C17.8524 6.33648 17.3781 5.95687 17.0816 5.50135C16.7852 5.03414 16.6369 4.45013 16.6369 3.74933C16.6369 3.0018 16.8208 2.34771 17.1884 1.78706C17.5678 1.22641 18.1133 0.788409 18.8248 0.473045C19.5363 0.157682 20.3842 0 21.3684 0C22.4119 0 23.2954 0.181042 24.0187 0.543126C24.7421 0.905211 25.3054 1.40162 25.7085 2.03234C26.1236 2.66307 26.3726 3.38724 26.4556 4.20485L23.7519 4.34501C23.7163 3.91285 23.5978 3.53908 23.3962 3.22372C23.1946 2.89667 22.9218 2.64555 22.578 2.47035C22.2341 2.29515 21.819 2.20755 21.3328 2.20755C20.7162 2.20755 20.23 2.34187 19.8743 2.61051C19.5304 2.87916 19.3584 3.22956 19.3584 3.66172C19.3584 3.96541 19.4355 4.22237 19.5897 4.43261C19.7557 4.63118 20.0225 4.80638 20.3901 4.95822C20.7696 5.11006 21.3032 5.25606 21.991 5.39623C23.1649 5.62983 24.0899 5.92767 24.7658 6.28976C25.4536 6.64016 25.9398 7.06065 26.2244 7.55121C26.509 8.04178 26.6513 8.60243 26.6513 9.23315C26.6513 10.004 26.4497 10.6757 26.0465 11.248C25.6552 11.8086 25.0919 12.2408 24.3567 12.5445C23.6333 12.8482 22.7736 13 21.7775 13Z" fill="white"/>
<path d="M28.9643 12.7197V0.280323H37.7513V2.52291H31.668V5.37871H37.5379V7.58625H31.668V10.4771H37.8936V12.7197H28.9643Z" fill="white"/>
<path d="M40.2809 12.7197V0.280323H43.2692L48.2852 8.86523V0.280323H50.9889V12.7197H47.9651L42.9846 4.43261V12.7197H40.2809Z" fill="white"/>
<path d="M63.5635 12.7197L68.1171 0.280323H71.3189L75.8725 12.7197H73.062L72.1371 10.0741H67.2811L66.3562 12.7197H63.5635ZM68.046 7.8841H71.39L69.718 3.08356L68.046 7.8841Z" fill="white"/>
<path d="M77.4391 12.7197V0.280323H82.3485C83.9138 0.280323 85.1114 0.554806 85.9415 1.10377C86.7716 1.64106 87.1866 2.49371 87.1866 3.66172C87.1866 4.17565 87.0799 4.62534 86.8665 5.01078C86.653 5.38455 86.3388 5.68239 85.9237 5.90431C85.5206 6.12623 85.0284 6.26056 84.4474 6.30728V6.27224C85.5028 6.34232 86.3091 6.646 86.8665 7.18329C87.4357 7.70889 87.7203 8.4097 87.7203 9.28571C87.7203 10.442 87.3052 11.3064 86.4752 11.8787C85.6569 12.4394 84.483 12.7197 82.9532 12.7197H77.4391ZM80.1428 10.5472H82.8287C83.4809 10.5472 84.0027 10.4187 84.394 10.1617C84.7972 9.89308 84.9988 9.49596 84.9988 8.97035C84.9988 8.44474 84.7972 8.04762 84.394 7.77898C84.0027 7.49865 83.4809 7.35849 82.8287 7.35849H80.1428V10.5472ZM80.1428 5.43127H82.2773C82.9414 5.43127 83.4691 5.30278 83.8604 5.04582C84.2636 4.78886 84.4652 4.42093 84.4652 3.94205C84.4652 3.42812 84.2695 3.05436 83.8782 2.82075C83.4987 2.57547 82.9651 2.45283 82.2773 2.45283H80.1428V5.43127Z" fill="white"/>
<path d="M95.1262 13C94.0353 13 93.0985 12.819 92.3158 12.4569C91.5332 12.0948 90.9225 11.5867 90.4837 10.9326C90.045 10.2785 89.7959 9.50764 89.7366 8.61995L92.4581 8.4973C92.5293 8.98787 92.6716 9.40836 92.885 9.75876C93.1103 10.0975 93.4068 10.3544 93.7744 10.5296C94.1539 10.7049 94.6163 10.7925 95.1618 10.7925C95.6124 10.7925 95.9919 10.7399 96.3002 10.6348C96.6204 10.5296 96.8635 10.372 97.0295 10.1617C97.1955 9.9398 97.2785 9.67116 97.2785 9.35579C97.2785 9.06379 97.2074 8.81267 97.0651 8.60243C96.9228 8.3805 96.65 8.18194 96.2468 8.00674C95.8437 7.81986 95.2508 7.63881 94.4681 7.46361C93.389 7.21833 92.5174 6.94385 91.8534 6.64016C91.2011 6.33648 90.7268 5.95687 90.4304 5.50135C90.1339 5.03414 89.9857 4.45013 89.9857 3.74933C89.9857 3.0018 90.1695 2.34771 90.5371 1.78706C90.9165 1.22641 91.462 0.788409 92.1735 0.473045C92.885 0.157682 93.7329 0 94.7171 0C95.7607 0 96.6441 0.181042 97.3675 0.543126C98.0908 0.905211 98.6541 1.40162 99.0573 2.03234C99.4723 2.66307 99.7213 3.38724 99.8043 4.20485L97.1006 4.34501C97.0651 3.91285 96.9465 3.53908 96.7449 3.22372C96.5433 2.89667 96.2706 2.64555 95.9267 2.47035C95.5828 2.29515 95.1677 2.20755 94.6816 2.20755C94.0649 2.20755 93.5787 2.34187 93.223 2.61051C92.8791 2.87916 92.7072 3.22956 92.7072 3.66172C92.7072 3.96541 92.7842 4.22237 92.9384 4.43261C93.1044 4.63118 93.3712 4.80638 93.7388 4.95822C94.1183 5.11006 94.6519 5.25606 95.3397 5.39623C96.5137 5.62983 97.4386 5.92767 98.1145 6.28976C98.8023 6.64016 99.2885 7.06065 99.5731 7.55121C99.8577 8.04178 100 8.60243 100 9.23315C100 10.004 99.7984 10.6757 99.3952 11.248C99.0039 11.8086 98.4406 12.2408 97.7054 12.5445C96.9821 12.8482 96.1223 13 95.1262 13Z" fill="white"/>
<path d="M53.9772 0.280323V12.7197H61.781V10.4771H56.6809V0.280323H53.9772Z" fill="white"/>
</svg>
