<svg width="476" height="400" viewBox="0 0 476 400" fill="none" xmlns="http://www.w3.org/2000/svg">
<path fill-rule="evenodd" clip-rule="evenodd" d="M294.365 0C310.138 0 322.925 12.7919 322.925 28.5714V105.92C322.925 119.069 333.581 129.729 346.725 129.729H447.44C463.213 129.729 476 142.521 476 158.301V371.429C476 387.208 463.213 400 447.44 400H181.635C165.862 400 153.075 387.208 153.075 371.429V294.08C153.075 280.931 142.419 270.271 129.275 270.271H28.56C12.7869 270.271 0.000204128 257.479 0 241.699L0 28.5714C0 12.7919 12.7867 9.81787e-07 28.56 0H294.365ZM181.635 129.729C165.862 129.729 153.075 142.521 153.075 158.301V241.699C153.075 257.479 165.862 270.271 181.635 270.271H294.365C310.138 270.271 322.925 257.479 322.925 241.699V158.301C322.925 142.521 310.138 129.729 294.365 129.729H181.635Z" fill="white"/>
</svg>
