<svg width="100" height="27" viewBox="0 0 100 27" fill="none" xmlns="http://www.w3.org/2000/svg">
<path fill-rule="evenodd" clip-rule="evenodd" d="M29.28 3.65975V0H32.6222V3.65975H29.28Z" fill="white"/>
<path d="M49.964 27C48.217 27 46.7104 26.7012 45.4445 26.1037C44.1785 25.5062 43.1783 24.7095 42.4441 23.7137C41.7351 22.6929 41.33 21.5602 41.2287 20.3154L44.5709 20.0913C44.7735 21.3112 45.3179 22.2697 46.204 22.9668C47.1156 23.6639 48.3689 24.0124 49.964 24.0124C51.4579 24.0124 52.6099 23.8008 53.4201 23.3776C54.2557 22.9544 54.6735 22.2946 54.6735 21.3983C54.6735 20.8257 54.5342 20.3527 54.2557 19.9793C53.9772 19.6058 53.4581 19.2946 52.6985 19.0456C51.9389 18.7718 50.8249 18.5104 49.3563 18.2614C47.4067 17.9129 45.8749 17.4896 44.7608 16.9917C43.6721 16.4689 42.8998 15.8216 42.4441 15.0498C41.9883 14.278 41.7604 13.3568 41.7604 12.2863C41.7604 11.1411 42.0516 10.1203 42.634 9.22407C43.2163 8.3278 44.0772 7.61826 45.2166 7.09544C46.356 6.57261 47.7485 6.3112 49.3943 6.3112C51.0654 6.3112 52.458 6.60996 53.5721 7.20747C54.7114 7.78008 55.6103 8.55187 56.2686 9.52282C56.9269 10.4689 57.3574 11.5145 57.5599 12.6598L54.2177 12.8838C54.0658 12.1867 53.7746 11.5768 53.3442 11.0539C52.9391 10.5062 52.3947 10.083 51.7111 9.78423C51.0528 9.46058 50.2679 9.29876 49.3563 9.29876C47.8878 9.29876 46.7991 9.58506 46.0901 10.1577C45.3812 10.7303 45.0267 11.4398 45.0267 12.2863C45.0267 12.9585 45.1913 13.4938 45.5204 13.8921C45.8496 14.2905 46.3813 14.6141 47.1156 14.8631C47.8498 15.0871 48.8246 15.2988 50.04 15.4979C52.1162 15.8216 53.724 16.2448 54.8634 16.7676C56.0028 17.2656 56.8003 17.888 57.2561 18.6349C57.7118 19.3817 57.9397 20.3029 57.9397 21.3983C57.9397 22.5685 57.5852 23.5768 56.8763 24.4232C56.1927 25.2448 55.2432 25.8797 54.0278 26.3278C52.8378 26.7759 51.4832 27 49.964 27Z" fill="white"/>
<path d="M70.7155 27C68.8166 27 67.1708 26.5768 65.7782 25.7303C64.4109 24.8838 63.3475 23.6888 62.5879 22.1452C61.8536 20.5768 61.4865 18.7469 61.4865 16.6556C61.4865 14.5643 61.8536 12.7469 62.5879 11.2033C63.3475 9.65975 64.3983 8.46473 65.7402 7.61826C67.1075 6.74689 68.7153 6.3112 70.5636 6.3112C72.3107 6.3112 73.8552 6.72199 75.1971 7.54357C76.5391 8.34025 77.5898 9.51037 78.3494 11.0539C79.109 12.5975 79.4888 14.4772 79.4888 16.6929V17.6266H64.8287C64.9553 19.7427 65.525 21.3361 66.5378 22.4066C67.5759 23.4772 68.9685 24.0124 70.7155 24.0124C72.0322 24.0124 73.1082 23.7137 73.9438 23.1162C74.8047 22.4938 75.3997 21.6846 75.7288 20.6888L79.147 20.9502C78.6153 22.7178 77.6025 24.1743 76.1086 25.3195C74.6401 26.4398 72.8424 27 70.7155 27ZM64.8287 14.8631H75.9947C75.8428 12.9461 75.2731 11.5394 74.2856 10.6432C73.2981 9.74689 72.0575 9.29876 70.5636 9.29876C69.0191 9.29876 67.7405 9.77178 66.7277 10.7178C65.7402 11.639 65.1072 13.0207 64.8287 14.8631Z" fill="white"/>
<path d="M83.5929 26.5519V6.75934H86.5173L86.6312 11.8008L86.2514 11.4647C86.5046 10.2946 86.9604 9.3361 87.6187 8.58921C88.3023 7.81743 89.1125 7.24481 90.0494 6.87137C90.9862 6.49792 91.9737 6.3112 93.0118 6.3112C94.5563 6.3112 95.8349 6.6473 96.8477 7.3195C97.8858 7.9917 98.6707 8.90041 99.2024 10.0456C99.7341 11.166 100 12.4232 100 13.8174V26.5519H96.8097V14.7137C96.8097 12.8714 96.4426 11.4772 95.7083 10.5311C94.974 9.56017 93.8473 9.07469 92.3281 9.07469C91.29 9.07469 90.3532 9.29875 89.5177 9.74689C88.6821 10.1701 88.0111 10.805 87.5047 11.6515C87.0237 12.473 86.7831 13.4938 86.7831 14.7137V26.5519H83.5929Z" fill="white"/>
<path fill-rule="evenodd" clip-rule="evenodd" d="M19.5172 23.4149L8.79435 23.4149V14.7884L18.7576 14.7884V11.7261L8.79435 11.7261V3.17427L19.2134 3.17427V0.0373362L5.52812 0.0373479H0V26.5519L19.5172 26.5519V23.4149ZM3.26624 3.17428H5.52812V23.4149H3.26624V3.17428Z" fill="white"/>
<path d="M29.5839 9.52282V23.7884H23.5136V26.5519H29.5839H32.7741H38.8108V23.7884H32.7741V9.52282V6.75934H29.5839H23.5136V9.52282H29.5839Z" fill="white"/>
</svg>
