<svg width="200" height="69" viewBox="0 0 200 69" fill="none" xmlns="http://www.w3.org/2000/svg">
<path d="M40.9716 67.8826H0V0.558703H40.9716V8.93927H9.1048V29.9838H37.8128V38.085H9.1048V59.4089H40.9716V67.8826Z" fill="black"/>
<path d="M55.094 11.5466C51.9352 11.5466 49.3339 8.93927 49.3339 5.77328C49.3339 2.51417 51.9352 0 55.094 0C58.2529 0 60.8542 2.51417 60.8542 5.77328C60.8542 8.93927 58.2529 11.5466 55.094 11.5466ZM50.8204 67.8826V22.3482H59.5535V67.8826H50.8204Z" fill="black"/>
<path d="M66.658 54.6599H75.0195C75.0195 59.3158 78.5499 62.1093 84.3101 62.1093C90.4419 62.1093 93.9724 59.5951 93.9724 55.4049C93.9724 52.332 92.4859 50.4696 87.7476 49.2591L79.7577 47.3968C71.6749 45.4413 67.8657 41.4372 67.8657 34.7328C67.8657 26.3522 74.9266 21.0445 84.9605 21.0445C94.9014 21.0445 101.405 26.6316 101.591 35.2915H93.2291C93.0433 30.7287 89.9774 27.8421 84.6817 27.8421C79.2003 27.8421 76.1344 30.2632 76.1344 34.4534C76.1344 37.5263 78.3641 39.5749 82.8236 40.6923L90.8135 42.6478C98.5248 44.5101 102.334 48.0486 102.334 54.8461C102.334 63.5061 94.9014 69 84.1243 69C73.4401 69 66.658 63.3198 66.658 54.6599Z" fill="black"/>
<path d="M129.764 69C116.385 69 107.188 59.3158 107.188 45.1619C107.188 30.915 116.199 21.0445 129.392 21.0445C142.306 21.0445 150.76 29.9838 150.76 43.4858V46.7449L115.642 46.8381C116.292 56.4291 121.309 61.7368 129.95 61.7368C136.732 61.7368 141.191 58.9433 142.678 53.7287H150.853C148.624 63.5061 141.005 69 129.764 69ZM129.392 28.4008C121.774 28.4008 116.943 32.9636 115.828 40.9717H142.027C142.027 33.4291 137.103 28.4008 129.392 28.4008Z" fill="black"/>
<path d="M167.39 67.8826H158.657V22.3482H166.554L167.483 29.332C170.363 24.1174 176.123 21.0445 182.534 21.0445C194.519 21.0445 200 28.4008 200 40.0405V67.8826H191.267V41.9959C191.267 32.7773 186.993 29.0526 180.304 29.0526C172.128 29.0526 167.39 34.919 167.39 43.7652V67.8826Z" fill="black"/>
</svg>
